# Made in Blockbench 5.2.0
mtllib station_drive_terminal.mtl

o monitor
v 0.43585 1.320882 -0.067052
v -0.434144 1.320882 -0.067052
v -0.434144 1.320882 0.305803
v 0.43585 1.320882 0.305803
v 0.43585 0.823742 0.305803
v 0.373708 1.258739 0.305803
v 0.373708 1.258739 0.367945
v -0.372001 0.823742 0.367945
v -0.372002 1.258739 0.367945
v -0.372002 1.258739 0.305803
v -0.372001 0.823742 0.305803
v 0.373708 0.823742 0.367945
v 0.373708 0.823742 0.305803
v -0.434144 0.823742 -0.067052
v 0.43585 0.823742 -0.067052
v -0.434144 0.823742 0.305803
vt 0.561987109375 0.2825015625
vt 0.561987109375 0.5
vt 0.468774609375 0.5
vt 0.4688875 0.640625
vt 0.6863859375 0.516340625
vt 0.6863859375 0.640625
vt 0.796362109375 0.6875
vt 0.703149609375 0.6875
vt 0.703149609375 0.563215625
vt 0.561987109375 0.2825015625
vt 0.468774609375 0.5
vt 0.468774609375 0.2825015625
vt 0.67085 0.7657140625
vt 0.6863859375 0.656965625
vt 0.6863859375 0.78125
vt 0.186475 0.5
vt 0.0000484375 0.5
vt 0.0000484375 0.3912515625
vt 0.45316953125 0.0323234375
vt 0.46870546875 0.0323234375
vt 0.46870546875 0.21875
vt 0.67085 0.7657140625
vt 0.4688875 0.78125
vt 0.4844234375 0.7657140625
vt 0.45316953125 0.0323234375
vt 0.46870546875 0.21875
vt 0.45316953125 0.21875
vt 0.67085 0.7657140625
vt 0.6863859375 0.78125
vt 0.4688875 0.78125
vt 0.187524609375 0.265625
vt 0.280737109375 0.141340625
vt 0.280737109375 0.265625
vt 0.4844234375 0.7657140625
vt 0.4688875 0.78125
vt 0.4688875 0.656965625
vt 0.76558046875 0.21861171875
vt 0.75004453125 0.10986328125
vt 0.76558046875 0.10986328125
vt 0.76558046875 0.21861171875
vt 0.75004453125 0.21861171875
vt 0.75004453125 0.10986328125
vt 0.4844234375 0.7657140625
vt 0.4688875 0.656965625
vt 0.4844234375 0.656965625
vt 0.71879453125 0.1100015625
vt 0.73433046875 0.21875
vt 0.71879453125 0.21875
vt 0.186475 0.5
vt 0.0000484375 0.3912515625
vt 0.186475 0.3912515625
vt 0.67085 0.7657140625
vt 0.67085 0.656965625
vt 0.6863859375 0.656965625
vt 0.71879453125 0.1100015625
vt 0.73433046875 0.1100015625
vt 0.73433046875 0.21875
vt 0.421875 0.0322265625
vt 0.4375 0.0322265625
vt 0.4375 0.21875
vt 0.421875 0.21875
vt 0.4688875 0.640625
vt 0.4688875 0.516340625
vt 0.6863859375 0.516340625
vt 0.796362109375 0.6875
vt 0.703149609375 0.563215625
vt 0.796362109375 0.563215625
vt 0.187524609375 0.265625
vt 0.187524609375 0.141340625
vt 0.280737109375 0.141340625
vt 0.578125 0.5
vt 0.578125 0.28271484375
vt 0.67138671875 0.28271484375
vt 0.67138671875 0.5
vn 0 1 0
vn 0 0 -1
vn 1 0 0
vn 0 1 0
vn 0 0 1
vn 0 0 1
vn 0 1 0
vn 0 0 1
vn 0 1 0
vn 0 0 1
vn -1 0 0
vn 0 0 1
vn -0.999999999997 -0.000002298866 0
vn -0.999999999997 -0.000002298866 0
vn 0 0 1
vn 1 0 0
vn 0 0 1
vn 0 0 1
vn 1 0 0
vn 0 -1 0
vn 0 0 -1
vn 1 0 0
vn -1 0 0
vn 0 -1 0
usemtl m_71b6eb3f-bc88-3b63-22fa-629fc66fe6cc
f 1/1/1 2/2/1 3/3/1
f 1/4/2 14/5/2 2/6/2
f 1/7/3 4/8/3 5/9/3
f 1/10/4 3/11/4 4/12/4
f 6/13/5 5/14/5 4/15/5
f 7/16/6 9/17/6 8/18/6
f 7/19/7 6/20/7 10/21/7
f 6/22/8 3/23/8 10/24/8
f 7/25/9 10/26/9 9/27/9
f 6/28/10 4/29/10 3/30/10
f 2/31/11 16/32/11 3/33/11
f 10/34/12 3/35/12 16/36/12
f 9/37/13 11/38/13 8/39/13
f 9/40/14 10/41/14 11/42/14
f 10/43/15 16/44/15 11/45/15
f 12/46/16 6/47/16 7/48/16
f 7/49/17 8/50/17 12/51/17
f 6/52/18 13/53/18 5/54/18
f 12/55/19 13/56/19 6/57/19
f 8/58/20 11/59/20 13/60/20
f 8/58/20 13/60/20 12/61/20
f 1/62/21 15/63/21 14/64/21
f 1/65/22 5/66/22 15/67/22
f 2/68/23 14/69/23 16/70/23
f 5/71/24 16/72/24 14/73/24
f 5/71/24 14/73/24 15/74/24
o cube
v 0.34375 0.834178515938 -0.423029904326
v -0.34375 0.834178515938 -0.423029904326
v 0.34375 0.802958259014 -0.421666798471
v -0.34375 0.802958259014 -0.421666798471
v -0.34375 0.846446468635 -0.142047592006
v 0.34375 0.846446468635 -0.142047592006
v -0.34375 0.81522621171 -0.140684486151
v 0.34375 0.81522621171 -0.140684486151
vt 0.515625 0.671875
vt 0.5859375 0.671875
vt 0.5859375 0.6640625
vt 0.515625 0.6640625
vt 0.78125 0.21875
vt 0.953125 0.21875
vt 0.953125 0.2109375
vt 0.78125 0.2109375
vt 0.8125 0.640625
vt 0.8828125 0.640625
vt 0.8828125 0.6328125
vt 0.8125 0.6328125
vt 0 0.1875
vt 0.171875 0.1875
vt 0.171875 0.1796875
vt 0 0.1796875
vt 0 0.375
vt 0.0703125 0.375
vt 0.0703125 0.203125
vt 0 0.203125
vt 0.09375 0.375
vt 0.1640625 0.375
vt 0.1640625 0.203125
vt 0.09375 0.203125
vn -1 0 0
vn 0 -0.043619387365 -0.999048221582
vn 1 0 0
vn 0 0.043619387365 0.999048221582
vn 0 0.999048221582 -0.043619387365
vn 0 -0.999048221582 0.043619387365
usemtl m_71b6eb3f-bc88-3b63-22fa-629fc66fe6cc
f 20/78/25 23/77/25 21/76/25
f 20/78/25 21/76/25 18/75/25
f 19/82/26 20/81/26 18/80/26
f 19/82/26 18/80/26 17/79/26
f 24/86/27 19/85/27 17/84/27
f 24/86/27 17/84/27 22/83/27
f 23/90/28 24/89/28 22/88/28
f 23/90/28 22/88/28 21/87/28
f 22/94/29 17/93/29 18/92/29
f 22/94/29 18/92/29 21/91/29
f 23/98/30 20/97/30 19/96/30
f 23/98/30 19/96/30 24/95/30
o cable
v -0.079787 1.022003 0.367372
v -0.080198 0.897887 0.367372
v -0.080198 0.897887 0.429872
v -0.079787 1.022003 0.429872
v 0.045921 0.897887 0.429872
v 0.045921 1.022003 0.429872
v 0.045921 0.897887 0.367372
v 0.045921 1.022003 0.367372
v -0.079896 0.45783 0.429872
v 0.257932 0.454745 0.429872
v 0.319767 0.454745 0.492372
v -0.079787 0.45783 0.492372
v 0.319767 0.517245 0.430659
v 0.319624 0.579745 0.368159
v 0.319698 0.579745 0.430659
v 0.25794 0.579745 0.430659
v 0.25786 0.579745 0.368159
v 0.319693 0.517245 0.368159
v 0.31961 0.454745 0.368159
v 0.319767 0.517245 0.492372
v -0.017287 0.45783 0.492372
v -0.017287 0.52033 0.492372
v 0.258016 0.517245 0.492372
v 0.258016 0.517245 0.430659
v 0.258016 0.517245 0.429872
v -0.079896 0.52033 0.429872
v 0.257844 0.454745 0.368159
v 0.257934 0.517245 0.368159
v -0.017287 0.52033 0.429872
v -0.079787 1.022003 0.492372
v -0.017287 1.022003 0.429872
v -0.017287 1.022003 0.492372
v 0.061546 0.991637 0.367372
v -0.064573 0.991637 0.367372
vt 0.78125 0.1875
vt 0.78125 0.156471875
vt 0.796875 0.156471875
vt 0.796875 0.1875
vt 0.390728125 0.34375
vt 0.390625 0.3125
vt 0.42236328125 0.3125
vt 0.42236328125 0.34375
vt 0.8125 0.609375
vt 0.8125 0.578125
vt 0.828125 0.578125
vt 0.828125 0.609375
vt 0.8125 0.1875
vt 0.8125 0.1560734375
vt 0.828125 0.1560734375
vt 0.828125 0.1875
vt 0.78125 0.15625
vt 0.78125 0.1875
vt 0.78125 0.1875
vt 0.78125 0.15625
vt 0.218844504357 0.40380859375
vt 0.218849501956 0.484363589321
vt 0.20322492624 0.499822544534
vt 0.20322038626 0.403836936577
vt 0.03125 0.140625
vt 0.046875 0.15625
vt 0.03125 0.15625
vt 0.078125 0.140809375
vt 0.09375 0.15623125
vt 0.078125 0.15625
vt 0.09375 0.140809375
vt 0.09375 0.15625
vt 0.078125 0.140828125
vt 0.03125 0.140625
vt 0.046875 0.140625
vt 0.046875 0.15625
vt 0.3907234375 0.28125
vt 0.4217765625 0.28125
vt 0.4217765625 0.296875
vt 0.3907234375 0.28125
vt 0.4217765625 0.296875
vt 0.3907234375 0.296875
vt 0.812604296875 0.671875
vt 0.892962109375 0.671103125
vt 0.892962109375 0.686728125
vt 0.812604296875 0.671875
vt 0.892962109375 0.686728125
vt 0.812604296875 0.6875
vt 0.09384765625 0.15625
vt 0.09384765625 0.1408125
vt 0.10927734375 0.1408125
vt 0.09384765625 0.15625
vt 0.10927734375 0.1408125
vt 0.10927734375 0.15625
vt 0.625 0.75
vt 0.625 0.685075
vt 0.640625 0.685075
vt 0.51588828125 0.702353125
vt 0.59643828125 0.71875
vt 0.51586640625 0.717978125
vt 0.0780265625 0.15625
vt 0.0625984375 0.140625
vt 0.0780265625 0.140625
vt 0.0780265625 0.15625
vt 0.0625984375 0.15625
vt 0.0625984375 0.140625
vt 0.625 0.75
vt 0.640625 0.685075
vt 0.640625 0.75
vt 0.046875 0.15625
vt 0.0625 0.140625
vt 0.0625 0.15625
vt 0.046875 0.140625
vt 0.0625 0.140625
vt 0.046875 0.15625
vt 0.51588828125 0.702353125
vt 0.59643828125 0.703125
vt 0.59643828125 0.71875
vt 0.609619052752 0.21875
vt 0.609619228498 0.0816125
vt 0.625244228498 0.081612520024
vt 0.609619052752 0.21875
vt 0.625244052752 0.0816140625
vt 0.625244052752 0.21875
vt 0.65625 0.21875
vt 0.65625 0.0816140625
vt 0.671875 0.0816140625
vt 0 0.15625
vt 0.015625 0.140625
vt 0.015625 0.15625
vt 0 0.15625
vt 0 0.140625
vt 0.015625 0.140625
vt 0.65625 0.21875
vt 0.671875 0.0816140625
vt 0.671875 0.21875
vt 0.6875 0.21875
vt 0.703125 0.0972390625
vt 0.703125 0.21875
vt 0.6875 0.21875
vt 0.6875 0.0972390625
vt 0.703125 0.0972390625
vt 0.0156453125 0.140625
vt 0.031065625 0.15625
vt 0.015625 0.15625
vt 0.015625 0.140625
vt 0.0310625 0.140625
vt 0.0310453125 0.15625
vt 0.20322492624 0.499822544534
vt 0.21884992624 0.484363169534
vt 0.23427961374 0.484341294534
vt 0.23427961374 0.499783482034
vt 0 1
vt 0 1
vt 0 1
vt 0 1
vt 0 1
vt 0 1
vt 0 1
vt 0 1
vt 0 1
vt 0 1
vt 0 1
vt 0 1
vt 0 1
vt 0 1
vt 0 1
vt 0 1
vt 0 1
vt 0 1
vt 0 1
vt 0 1
vn -0.999994517299 0.003311400195 0
vn 0 0 1
vn 1 0 0
vn 0 1 0
vn 0 -1 0
vn -0.009131112557 -0.999917501795 0.00903395752
vn 0.999998689667 0.001103998553 -0.001183998449
vn 0 -1 0
vn 0 -1 0
vn 0.999998689667 0.001103998553 -0.001183998449
vn 0.999998319417 -0.001327997768 -0.001263955755
vn 0.999999822541 0 -0.000595750742
vn 0 0 1
vn 0 0 1
vn 0 1 0
vn 0 1 0
vn 0.011205131529 0.999937220543 0
vn 0 0 -1
vn -0.999998080163 0.00134399742 0.001425952896
vn -0.999998080442 0.001439997236 0.001328728835
vn 0.011205131529 0.999937220543 0
vn 0.999998479875 0.0011839982 -0.001279998054
vn 0.999998400004 0.001215998054 -0.001311997901
vn 0 0 -1
vn -0.999998460572 0.000193202851 0.001743997315
vn -1 0 0
vn 0 0 1
vn 0 1 0
vn 0 1 0
vn 0 0 1
vn 1 0 0
vn 1 0 0
vn 0 0 1
vn 0 0 1
vn 0 -1 0
vn 0 0 1
vn 0 0 -1
vn 0 0 1
vn -0.703113133756 0 -0.711077999336
vn -0.999994517299 0.003311400195 0
usemtl m_71b6eb3f-bc88-3b63-22fa-629fc66fe6cc
f 25/99/31 26/100/31 27/101/31
f 25/99/31 27/101/31 28/102/31
f 28/103/32 27/104/32 29/105/32
f 28/103/32 29/105/32 30/106/32
f 30/107/33 29/108/33 31/109/33
f 30/107/33 31/109/33 32/110/33
f 28/111/34 30/112/34 32/113/34
f 28/111/34 32/113/34 25/114/34
f 29/115/35 27/116/35 26/117/35
f 29/115/35 26/117/35 31/118/35
f 33/119/36 34/120/36 35/121/36
f 33/119/36 35/121/36 36/122/36
f 37/123/37 38/124/37 39/125/37
f 40/126/38 38/127/38 39/128/38
f 41/129/39 38/130/39 40/131/39
f 37/132/40 42/133/40 38/134/40
f 35/135/41 43/136/41 42/137/41
f 35/138/42 42/139/42 44/140/42
f 45/141/43 35/142/43 44/143/43
f 45/144/44 44/145/44 46/146/44
f 47/147/45 44/148/45 37/149/45
f 47/150/46 37/151/46 48/152/46
f 46/153/47 47/154/47 49/155/47
f 34/156/48 50/157/48 49/158/48
f 49/159/49 51/160/49 34/161/49
f 49/162/50 52/163/50 51/164/50
f 46/165/51 49/166/51 53/167/51
f 40/168/52 52/169/52 41/170/52
f 48/171/53 52/172/53 40/173/53
f 34/174/54 33/175/54 50/176/54
f 28/177/55 33/178/55 36/179/55
f 28/180/56 36/181/56 54/182/56
f 54/183/57 36/184/57 45/185/57
f 54/186/58 55/187/58 28/188/58
f 54/189/59 56/190/59 55/191/59
f 54/192/60 45/193/60 56/194/60
f 56/195/61 53/196/61 55/197/61
f 56/198/62 46/199/62 53/200/62
f 48/201/63 39/202/63 40/203/63
f 48/204/64 37/205/64 39/206/64
f 35/207/65 34/208/65 51/209/65
f 35/207/65 51/209/65 43/210/65
f 41/135/66 51/136/66 43/137/66
f 41/138/66 43/139/66 38/140/66
f 26/215/67 25/216/67 32/217/67
f 26/215/67 32/217/67 31/218/67
f 28/219/68 50/220/68 53/221/68
f 28/219/68 53/221/68 55/222/68
f 55/223/69 32/224/69 31/225/69
f 55/223/69 31/225/69 25/226/69
o rack_top
v 0.438461 0.82427 -0.444267
v -0.436539 0.82427 -0.444317
v -0.436589 0.82427 0.430683
v -0.436539 0.69927 -0.444317
v 0.438461 0.69927 -0.444267
v 0.438411 0.82427 0.430733
v 0.438411 0.69927 0.430733
v -0.436589 0.69927 0.430683
vt 0.218987890625 0.7812375
vt 0.219000390625 0.9999875
vt 0.000250390625 1
vt 0.75 0.265625
vt 0.53125 0.265625
vt 0.53125 0.234375
vt 0.921875 0.515625
vt 0.921875 0.546875
vt 0.703125 0.546875
vt 0.921875 0.515625
vt 0.703125 0.546875
vt 0.703125 0.515625
vt 0.984375 0.234375
vt 0.984375 0.265625
vt 0.765625 0.265625
vt 0.218987890625 0.7812375
vt 0.000250390625 1
vt 0.000237890625 0.78125
vt 0.984375 0.234375
vt 0.765625 0.265625
vt 0.765625 0.234375
vt 0.515625 0.265625
vt 0.296875 0.234375
vt 0.515625 0.234375
vt 0.515625 0.265625
vt 0.296875 0.265625
vt 0.296875 0.234375
vt 0.75 0.265625
vt 0.53125 0.234375
vt 0.75 0.234375
vt 0.000250390625 0.53076171875
vt 0.219000390625 0.53077421875
vt 0.218987890625 0.74952421875
vt 0.000250390625 0.53076171875
vt 0.218987890625 0.74952421875
vt 0.000237890625 0.74951171875
vn 0 1 0
vn -0.999999998367 0 -0.000057142857
vn 0.000057142857 0 -0.999999998367
vn 0.000057142857 0 -0.999999998367
vn 0.999999998367 0 0.000057142857
vn 0 1 0
vn 0.999999998367 0 0.000057142857
vn -0.000057142857 0 0.999999998367
vn -0.000057142857 0 0.999999998367
vn -0.999999998367 0 -0.000057142857
vn 0 -1 0
vn 0 -1 0
usemtl m_71b6eb3f-bc88-3b63-22fa-629fc66fe6cc
f 59/231/71 60/232/71 61/233/71
f 61/234/72 60/235/72 62/236/72
f 62/237/73 60/238/73 59/239/73
f 62/240/74 59/241/74 63/242/74
f 63/243/75 59/244/75 64/245/75
f 59/246/76 61/247/76 64/248/76
f 63/249/77 64/250/77 65/251/77
f 64/252/78 66/253/78 65/254/78
f 64/255/79 61/256/79 66/257/79
f 61/258/80 62/259/80 66/260/80
f 66/261/81 62/262/81 63/263/81
f 66/264/82 63/265/82 65/266/82
o base.046
v 0.375911 0.699958 0.43073
v 0.375915 0.699958 0.36823
v 0.375915 0 0.36823
v 0.438415 0.699958 0.368233
v 0.438415 0 0.368233
v 0.438411 0.699958 0.430733
v 0.438411 0 0.430733
v 0.375911 0 0.43073
vt 0.5625 0.21875
vt 0.546875 0.21875
vt 0.546875 0.0437609375
vt 0.5 0.0437609375
vt 0.5 0.21875
vt 0.484375 0.21875
vt 0.5 0.0437609375
vt 0.484375 0.21875
vt 0.484375 0.0437609375
vt 0.59375 0.0437609375
vt 0.59375 0.21875
vt 0.578125 0.21875
vt 0.59375 0.0437609375
vt 0.578125 0.21875
vt 0.578125 0.0437609375
vt 0.53125 0.21875
vt 0.515625 0.0437609375
vt 0.53125 0.0437609375
vt 0.53125 0.21875
vt 0.515625 0.21875
vt 0.515625 0.0437609375
vt 0.5625 0.21875
vt 0.546875 0.0437609375
vt 0.5625 0.0437609375
vt 0.4375 0.28125
vt 0.453125 0.28125
vt 0.453125 0.296875
vt 0.4375 0.28125
vt 0.453125 0.296875
vt 0.4375 0.296875
vn -0.999999997952 0 -0.000064
vn 0.000048 0 -0.999999998848
vn 0.000048 0 -0.999999998848
vn 0.999999997952 0 0.000064
vn 0.999999997952 0 0.000064
vn -0.000048 0 0.999999998848
vn -0.000048 0 0.999999998848
vn -0.999999997952 0 -0.000064
vn 0 -1 0
vn 0 -1 0
usemtl m_71b6eb3f-bc88-3b63-22fa-629fc66fe6cc
f 67/267/83 68/268/83 69/269/83
f 69/270/84 68/271/84 70/272/84
f 69/273/85 70/274/85 71/275/85
f 71/276/86 70/277/86 72/278/86
f 71/279/87 72/280/87 73/281/87
f 72/282/88 74/283/88 73/284/88
f 72/285/89 67/286/89 74/287/89
f 67/288/90 69/289/90 74/290/90
f 74/291/91 69/292/91 71/293/91
f 74/294/92 71/295/92 73/296/92
o base.047
v -0.436589 0.699958 0.430683
v -0.436585 0.699958 0.368183
v -0.436585 0 0.368183
v -0.374085 0.699958 0.368187
v -0.374085 0 0.368187
v -0.374089 0.699958 0.430687
v -0.374089 0 0.430687
v -0.436589 0 0.430683
vt 0.5625 0.21875
vt 0.546875 0.21875
vt 0.546875 0.0437609375
vt 0.5 0.0437609375
vt 0.5 0.21875
vt 0.484375 0.21875
vt 0.5 0.0437609375
vt 0.484375 0.21875
vt 0.484375 0.0437609375
vt 0.59375 0.0437609375
vt 0.59375 0.21875
vt 0.578125 0.21875
vt 0.59375 0.0437609375
vt 0.578125 0.21875
vt 0.578125 0.0437609375
vt 0.53125 0.21875
vt 0.515625 0.0437609375
vt 0.53125 0.0437609375
vt 0.53125 0.21875
vt 0.515625 0.21875
vt 0.515625 0.0437609375
vt 0.5625 0.21875
vt 0.546875 0.0437609375
vt 0.5625 0.0437609375
vt 0.4375 0.28125
vt 0.453125 0.28125
vt 0.453125 0.296875
vt 0.4375 0.28125
vt 0.453125 0.296875
vt 0.4375 0.296875
vn -0.999999997952 0 -0.000064
vn 0.000064 0 -0.999999997952
vn 0.000064 0 -0.999999997952
vn 0.999999997952 0 0.000064
vn 0.999999997952 0 0.000064
vn -0.000064 0 0.999999997952
vn -0.000064 0 0.999999997952
vn -0.999999997952 0 -0.000064
vn 0 -1 0
vn 0 -1 0
usemtl m_71b6eb3f-bc88-3b63-22fa-629fc66fe6cc
f 75/297/93 76/298/93 77/299/93
f 77/300/94 76/301/94 78/302/94
f 77/303/95 78/304/95 79/305/95
f 79/306/96 78/307/96 80/308/96
f 79/309/97 80/310/97 81/311/97
f 80/312/98 82/313/98 81/314/98
f 80/315/99 75/316/99 82/317/99
f 75/318/100 77/319/100 82/320/100
f 82/321/101 77/322/101 79/323/101
f 82/324/102 79/325/102 81/326/102
o base.048
v 0.375957 0.699958 -0.38177
v 0.375961 0.699958 -0.44427
v 0.375961 0 -0.44427
v 0.438461 0.699958 -0.444267
v 0.438461 0 -0.444267
v 0.438457 0.699958 -0.381767
v 0.438457 0 -0.381767
v 0.375957 0 -0.38177
vt 0.5625 0.21875
vt 0.546875 0.21875
vt 0.546875 0.0437609375
vt 0.5 0.0437609375
vt 0.5 0.21875
vt 0.484375 0.21875
vt 0.5 0.0437609375
vt 0.484375 0.21875
vt 0.484375 0.0437609375
vt 0.59375 0.0437609375
vt 0.59375 0.21875
vt 0.578125 0.21875
vt 0.59375 0.0437609375
vt 0.578125 0.21875
vt 0.578125 0.0437609375
vt 0.53125 0.21875
vt 0.515625 0.0437609375
vt 0.53125 0.0437609375
vt 0.53125 0.21875
vt 0.515625 0.21875
vt 0.515625 0.0437609375
vt 0.5625 0.21875
vt 0.546875 0.0437609375
vt 0.5625 0.0437609375
vt 0.4375 0.28125
vt 0.453125 0.28125
vt 0.453125 0.296875
vt 0.4375 0.28125
vt 0.453125 0.296875
vt 0.4375 0.296875
vn -0.999999997952 0 -0.000064
vn 0.000048 0 -0.999999998848
vn 0.000048 0 -0.999999998848
vn 0.999999997952 0 0.000064
vn 0.999999997952 0 0.000064
vn -0.000048 0 0.999999998848
vn -0.000048 0 0.999999998848
vn -0.999999997952 0 -0.000064
vn 0 -1 0
vn 0 -1 0
usemtl m_71b6eb3f-bc88-3b63-22fa-629fc66fe6cc
f 83/327/103 84/328/103 85/329/103
f 85/330/104 84/331/104 86/332/104
f 85/333/105 86/334/105 87/335/105
f 87/336/106 86/337/106 88/338/106
f 87/339/107 88/340/107 89/341/107
f 88/342/108 90/343/108 89/344/108
f 88/345/109 83/346/109 90/347/109
f 83/348/110 85/349/110 90/350/110
f 90/351/111 85/352/111 87/353/111
f 90/354/112 87/355/112 89/356/112
o base.049
v -0.436543 0.699958 -0.381817
v -0.436539 0.699958 -0.444317
v -0.436539 0 -0.444317
v -0.374039 0.699958 -0.444313
v -0.374039 0 -0.444313
v -0.374043 0.699958 -0.381813
v -0.374043 0 -0.381813
v -0.436543 0 -0.381817
vt 0.5625 0.21875
vt 0.546875 0.21875
vt 0.546875 0.0437609375
vt 0.5 0.0437609375
vt 0.5 0.21875
vt 0.484375 0.21875
vt 0.5 0.0437609375
vt 0.484375 0.21875
vt 0.484375 0.0437609375
vt 0.59375 0.0437609375
vt 0.59375 0.21875
vt 0.578125 0.21875
vt 0.59375 0.0437609375
vt 0.578125 0.21875
vt 0.578125 0.0437609375
vt 0.53125 0.21875
vt 0.515625 0.0437609375
vt 0.53125 0.0437609375
vt 0.53125 0.21875
vt 0.515625 0.21875
vt 0.515625 0.0437609375
vt 0.5625 0.21875
vt 0.546875 0.0437609375
vt 0.5625 0.0437609375
vt 0.4375 0.28125
vt 0.453125 0.28125
vt 0.453125 0.296875
vt 0.4375 0.28125
vt 0.453125 0.296875
vt 0.4375 0.296875
vn -0.999999997952 0 -0.000064
vn 0.000064 0 -0.999999997952
vn 0.000064 0 -0.999999997952
vn 0.999999997952 0 0.000064
vn 0.999999997952 0 0.000064
vn -0.000064 0 0.999999997952
vn -0.000064 0 0.999999997952
vn -0.999999997952 0 -0.000064
vn 0 -1 0
vn 0 -1 0
usemtl m_71b6eb3f-bc88-3b63-22fa-629fc66fe6cc
f 91/357/113 92/358/113 93/359/113
f 93/360/114 92/361/114 94/362/114
f 93/363/115 94/364/115 95/365/115
f 95/366/116 94/367/116 96/368/116
f 95/369/117 96/370/117 97/371/117
f 96/372/118 98/373/118 97/374/118
f 96/375/119 91/376/119 98/377/119
f 91/378/120 93/379/120 98/380/120
f 98/381/121 93/382/121 95/383/121
f 98/384/122 95/385/122 97/386/122
o drive
v -0.249043 0.234564 -0.381806
v -0.249036 0.234564 -0.506806
v -0.249036 0.172064 -0.506806
v -0.249043 0.172064 -0.381806
v 0.125964 0.172064 -0.506785
v 0.125964 0.234564 -0.506785
v 0.125957 0.234564 -0.381785
v 0.125957 0.172064 -0.381785
vt 0.21875 0.08203125
vt 0.1875 0.08203125
vt 0.1875 0.06640625
vt 0.21875 0.08203125
vt 0.1875 0.06640625
vt 0.21875 0.06640625
vt 0.1875 0.06640625
vt 0.1875 0.08203125
vt 0.21875 0.08203125
vt 0.1875 0.06640625
vt 0.21875 0.08203125
vt 0.21875 0.06640625
vt 0.328366796875 0.0156234375
vt 0.328371484375 0.1093734375
vt 0.297121484375 0.109375
vt 0.328366796875 0.0156234375
vt 0.297121484375 0.109375
vt 0.297116796875 0.015625
vt 0.359621484375 0.01513671875
vt 0.390871484375 0.01513828125
vt 0.390866796875 0.10888828125
vt 0.359621484375 0.01513671875
vt 0.390866796875 0.10888828125
vt 0.359616796875 0.10888671875
vt 0.28125 0.09375
vt 0.28125 0.109375
vt 0.1875 0.109375
vt 0.28125 0.09375
vt 0.1875 0.109375
vt 0.1875 0.09375
vn -0.999999998432 0 -0.000056
vn -0.999999998432 0 -0.000056
vn 0.999999998432 0 0.000056
vn 0.999999998432 0 0.000056
vn 0 1 0
vn 0 1 0
vn 0 -1 0
vn 0 -1 0
vn 0.000056 0 -0.999999998432
vn 0.000056 0 -0.999999998432
usemtl m_71b6eb3f-bc88-3b63-22fa-629fc66fe6cc
f 99/387/123 100/388/123 101/389/123
f 99/390/124 101/391/124 102/392/124
f 103/393/125 104/394/125 105/395/125
f 103/396/126 105/397/126 106/398/126
f 104/399/127 100/400/127 99/401/127
f 104/402/128 99/403/128 105/404/128
f 102/405/129 101/406/129 103/407/129
f 102/408/130 103/409/130 106/410/130
f 101/411/131 100/412/131 104/413/131
f 101/414/132 104/415/132 103/416/132
o server_bottom
v 0.375957 0.324821 -0.38177
v -0.374043 0.324821 -0.381813
v -0.374085 0.324821 0.368187
v -0.374043 0.074821 -0.381813
v 0.375957 0.074821 -0.38177
v 0.375915 0.324821 0.36823
v 0.375915 0.074821 0.36823
v -0.374085 0.074821 0.368187
vt 0.437738671875 0.3749890625
vt 0.437749609375 0.5624890625
vt 0.250249609375 0.5625
vt 0.890625 0.84375
vt 0.703125 0.84375
vt 0.703125 0.78125
vt 0.875 0.28125
vt 0.875 0.34375
vt 0.6875 0.34375
vt 0.875 0.28125
vt 0.6875 0.34375
vt 0.6875 0.28125
vt 0.890625 0.703125
vt 0.890625 0.765625
vt 0.703125 0.765625
vt 0.437738671875 0.3749890625
vt 0.250249609375 0.5625
vt 0.250238671875 0.375
vt 0.890625 0.703125
vt 0.703125 0.765625
vt 0.703125 0.703125
vt 0.875 0.421875
vt 0.6875 0.359375
vt 0.875 0.359375
vt 0.875 0.421875
vt 0.6875 0.421875
vt 0.6875 0.359375
vt 0.890625 0.84375
vt 0.703125 0.78125
vt 0.890625 0.78125
vt 0.468999609375 0.81201171875
vt 0.656499609375 0.81202265625
vt 0.656488671875 0.99952265625
vt 0.468999609375 0.81201171875
vt 0.656488671875 0.99952265625
vt 0.468988671875 0.99951171875
vn 0 1 0
vn -0.999999998432 0 -0.000056
vn 0.000057333333 0 -0.999999998356
vn 0.000057333333 0 -0.999999998356
vn 0.999999998432 0 0.000056
vn 0 1 0
vn 0.999999998432 0 0.000056
vn -0.000057333333 0 0.999999998356
vn -0.000057333333 0 0.999999998356
vn -0.999999998432 0 -0.000056
vn 0 -1 0
vn 0 -1 0
usemtl m_71b6eb3f-bc88-3b63-22fa-629fc66fe6cc
f 107/417/133 108/418/133 109/419/133
f 109/420/134 108/421/134 110/422/134
f 110/423/135 108/424/135 107/425/135
f 110/426/136 107/427/136 111/428/136
f 111/429/137 107/430/137 112/431/137
f 107/432/138 109/433/138 112/434/138
f 111/435/139 112/436/139 113/437/139
f 112/438/140 114/439/140 113/440/140
f 112/441/141 109/442/141 114/443/141
f 109/444/142 110/445/142 114/446/142
f 114/447/143 110/448/143 111/449/143
f 114/450/144 111/451/144 113/452/144
o drive
v -0.249043 0.547064 -0.381806
v -0.249036 0.547064 -0.506806
v -0.249036 0.484564 -0.506806
v -0.249043 0.484564 -0.381806
v 0.125964 0.484564 -0.506785
v 0.125964 0.547064 -0.506785
v 0.125957 0.547064 -0.381785
v 0.125957 0.484564 -0.381785
vt 0.21875 0.375
vt 0.1875 0.375
vt 0.1875 0.359375
vt 0.21875 0.375
vt 0.1875 0.359375
vt 0.21875 0.359375
vt 0.1875 0.359375
vt 0.1875 0.375
vt 0.21875 0.375
vt 0.1875 0.359375
vt 0.21875 0.375
vt 0.21875 0.359375
vt 0.328366796875 0.1249984375
vt 0.328371484375 0.2187484375
vt 0.297121484375 0.21875
vt 0.328366796875 0.1249984375
vt 0.297121484375 0.21875
vt 0.297116796875 0.125
vt 0.359621484375 0.12451171875
vt 0.390871484375 0.12451328125
vt 0.390866796875 0.21826328125
vt 0.359621484375 0.12451171875
vt 0.390866796875 0.21826328125
vt 0.359616796875 0.21826171875
vt 0.609375 0.734375
vt 0.609375 0.75
vt 0.515625 0.75
vt 0.609375 0.734375
vt 0.515625 0.75
vt 0.515625 0.734375
vn -0.999999998432 0 -0.000056
vn -0.999999998432 0 -0.000056
vn 0.999999998432 0 0.000056
vn 0.999999998432 0 0.000056
vn 0 1 0
vn 0 1 0
vn 0 -1 0
vn 0 -1 0
vn 0.000056 0 -0.999999998432
vn 0.000056 0 -0.999999998432
usemtl m_71b6eb3f-bc88-3b63-22fa-629fc66fe6cc
f 115/453/145 116/454/145 117/455/145
f 115/456/146 117/457/146 118/458/146
f 119/459/147 120/460/147 121/461/147
f 119/462/148 121/463/148 122/464/148
f 120/465/149 116/466/149 115/467/149
f 120/468/150 115/469/150 121/470/150
f 118/471/151 117/472/151 119/473/151
f 118/474/152 119/475/152 122/476/152
f 117/477/153 116/478/153 120/479/153
f 117/480/154 120/481/154 119/482/154
o server_top
v 0.375957 0.640814 -0.38177
v -0.374043 0.640814 -0.381813
v -0.374085 0.640814 0.368187
v -0.374043 0.390814 -0.381813
v 0.375957 0.390814 -0.38177
v 0.375915 0.640814 0.36823
v 0.375915 0.390814 0.36823
v -0.374085 0.390814 0.368187
vt 0.437738671875 0.8124890625
vt 0.437749609375 0.9999890625
vt 0.250249609375 1
vt 0.875 0.921875
vt 0.6875 0.921875
vt 0.6875 0.859375
vt 0.875 0.9375
vt 0.875 1
vt 0.6875 1
vt 0.875 0.9375
vt 0.6875 1
vt 0.6875 0.9375
vt 0.875 0.4375
vt 0.875 0.5
vt 0.6875 0.5
vt 0.437738671875 0.8124890625
vt 0.250249609375 1
vt 0.250238671875 0.8125
vt 0.875 0.4375
vt 0.6875 0.5
vt 0.6875 0.4375
vt 0.375 0.34375
vt 0.1875 0.28125
vt 0.375 0.28125
vt 0.375 0.34375
vt 0.1875 0.34375
vt 0.1875 0.28125
vt 0.875 0.921875
vt 0.6875 0.859375
vt 0.875 0.859375
vt 0.250249609375 0.59326171875
vt 0.437749609375 0.59327265625
vt 0.437738671875 0.78077265625
vt 0.250249609375 0.59326171875
vt 0.437738671875 0.78077265625
vt 0.250238671875 0.78076171875
vn 0 1 0
vn -0.999999998432 0 -0.000056
vn 0.000057333333 0 -0.999999998356
vn 0.000057333333 0 -0.999999998356
vn 0.999999998432 0 0.000056
vn 0 1 0
vn 0.999999998432 0 0.000056
vn -0.000057333333 0 0.999999998356
vn -0.000057333333 0 0.999999998356
vn -0.999999998432 0 -0.000056
vn 0 -1 0
vn 0 -1 0
usemtl m_71b6eb3f-bc88-3b63-22fa-629fc66fe6cc
f 123/483/155 124/484/155 125/485/155
f 125/486/156 124/487/156 126/488/156
f 126/489/157 124/490/157 123/491/157
f 126/492/158 123/493/158 127/494/158
f 127/495/159 123/496/159 128/497/159
f 123/498/160 125/499/160 128/500/160
f 127/501/161 128/502/161 129/503/161
f 128/504/162 130/505/162 129/506/162
f 128/507/163 125/508/163 130/509/163
f 125/510/164 126/511/164 130/512/164
f 130/513/165 126/514/165 127/515/165
f 130/516/166 127/517/166 129/518/166
